<svg width="139" height="81" viewBox="0 0 139 81" fill="none" xmlns="http://www.w3.org/2000/svg">
<path d="M43.0464 0C31.8026 0 21.0192 4.26695 13.0686 11.8622C5.11798 19.4574 0.651368 29.7587 0.651367 40.5C0.651366 51.2413 5.11798 61.5426 13.0686 69.1378C21.0192 76.733 31.8026 81 43.0464 81L43.0464 40.5L43.0464 0Z" fill="#043D54"/>
<path d="M96.4759 0C85.232 0 74.4487 4.26695 66.498 11.8622C58.5474 19.4574 54.0808 29.7587 54.0808 40.5C54.0808 51.2413 58.5474 61.5426 66.498 69.1378C74.4487 76.733 85.232 81 96.4759 81L96.4759 40.5V0Z" fill="#42A855"/>
</svg>
