<svg width="110" height="34" viewBox="0 0 110 34" fill="none" xmlns="http://www.w3.org/2000/svg">
<path d="M29.5899 4.19575C20.7462 4.19575 14.9786 0 14.9786 0C14.9786 0 9.21102 4.19575 0.444317 4.19575C0.444317 4.19575 -0.555396 17.5065 0.444317 22.1362C1.36712 26.4766 14.9786 34 14.9786 34C14.9786 34 28.5901 26.4766 29.5899 22.1362C30.5126 17.5787 29.5899 4.19575 29.5899 4.19575Z" fill="#42A855"/>
<path fill-rule="evenodd" clip-rule="evenodd" d="M46.0599 17L40 13.4359L44.4665 5.56412L50.53 9.12207L50.5334 2H59.4666L59.47 9.12207L65.5334 5.56412L70 13.4359L63.94 17L70 20.5641L65.5334 28.4359L59.47 24.8779L59.4666 32H50.5334L50.53 24.8779L44.4665 28.4359L40 20.5641L46.0599 17Z" fill="#F8B353"/>
<path fill-rule="evenodd" clip-rule="evenodd" d="M95.1604 17.7781C94.7489 25.6431 88.1342 31.9085 80 32V2C88.1342 2.09157 94.7489 8.3569 95.1604 16.2219C95.5665 8.46058 102.013 2.25704 110 2.00686V31.9933C102.013 31.7431 95.5665 25.5395 95.1604 17.7781Z" fill="#3EA3CD"/>
</svg>
